<svg width="24.000000" height="24.000000" viewBox="0 0 24 24" fill="none" xmlns="http://www.w3.org/2000/svg" xmlns:xlink="http://www.w3.org/1999/xlink">
	<desc>
			Created with Pixso.
	</desc>
	<defs>
		<clipPath id="clip1_13">
			<rect width="24.000000" height="24.000000" fill="white" fill-opacity="0"/>
		</clipPath>
	</defs>
	<rect width="24.000000" height="24.000000" fill="#FFFFFF" fill-opacity="0"/>
	<g clip-path="url(#clip1_13)">
		<path d="M19.65 8.76C19.7 8.47 19.73 8.17 19.73 7.87C19.73 5.18 17.48 3 14.72 3C12.96 3 11.32 3.91 10.43 5.36C9.21 4.98 7.97 5.14 6.94 5.83C5.92 6.52 5.31 7.6 5.26 8.79C3.91 9.42 3 10.74 3 12.2C3 12.46 3.06 12.7 3.11 12.95L3.11 12.95C3.47 14.71 5.07 16 6.93 16L18.06 16C20.21 16 22 14.29 22 12.2C22 10.72 21.07 9.39 19.65 8.76Z" fill="#787D85" fill-opacity="1.000000" fill-rule="nonzero"/>
	</g>
</svg>
